<?xml version="1.0" encoding="iso-8859-1"?>
<!-- Generator: Adobe Illustrator 19.0.0, SVG Export Plug-In . SVG Version: 6.00 Build 0)  -->
<svg version="1.1" id="Layer_1" xmlns="http://www.w3.org/2000/svg" xmlns:xlink="http://www.w3.org/1999/xlink" x="0px" y="0px"
	 viewBox="0 0 512 512" style="enable-background:new 0 0 512 512;" xml:space="preserve">
<g>
	<g>
		<path d="M323.651,0.006l-3.091,11.143c-8.014,28.883-34.561,49.056-64.559,49.056c-29.998,0-56.546-20.172-64.56-49.056
			l-3.092-11.143H0v184.582h97.261v327.406h317.479V184.588H512V0.006H323.651z M481.585,154.172h-97.261v327.406H127.677V154.172
			H30.416V30.423h135.55c14.887,35.96,50.388,60.198,90.034,60.198c39.645,0,75.146-24.238,90.033-60.198h135.552V154.172z"/>
	</g>
</g>
<g>
	<g>
		<path d="M357.468,220.306l-70.113-10.188L256,146.585l-31.355,63.533l-70.113,10.188l50.735,49.453l-11.977,69.83L256,306.62
			l62.711,32.969l-11.977-69.83L357.468,220.306z M278.313,283.987L256,272.256l-22.311,11.732l4.261-24.846l-18.053-17.596
			l24.948-3.625l11.157-22.607l11.157,22.607l24.948,3.625l-18.053,17.596L278.313,283.987z"/>
	</g>
</g>
<g>
</g>
<g>
</g>
<g>
</g>
<g>
</g>
<g>
</g>
<g>
</g>
<g>
</g>
<g>
</g>
<g>
</g>
<g>
</g>
<g>
</g>
<g>
</g>
<g>
</g>
<g>
</g>
<g>
</g>
</svg>
